<svg fill="none" xmlns="http://www.w3.org/2000/svg" viewBox="0 0 47 64">
    <path d="M40.938 2.1h-34.6c-1.7 0-3.1 1.4-3.1 3.1v21.2c2.7-2.1 6.1-4.9 12.2-3.4 5.3 1.3 6.4 5.4 14.8 10 5.1 2.8 9.9.6 13.8-1.6V5.2c0-1.7-1.4-3.1-3.1-3.1z" fill="#1A833B"/>
    <path d="M32.938 42.4c-1.7-.2-3.1-.8-4.4-1.7-2.9-1.8-5.7-4.7-11.7-7.8-4.7-2.3-9.4-.5-13.6 1.9v23.7c0 1.7 1.4 3.1 3.1 3.1h34.5c1.7 0 3.1-1.4 3.1-3.1V39.1c-3.6 2.1-7.1 3.9-11 3.3z" fill="#1A589F"/>
    <path d="M30.238 32.9c-8.3-4.6-9.5-8.7-14.8-10-6.1-1.5-9.5 1.4-12.2 3.4V34.7c4.2-2.4 8.9-4.3 13.6-1.9 6 3.1 8.8 6 11.7 7.8 1.3.8 2.7 1.4 4.4 1.7 3.9.6 7.4-1.1 11.1-3.2V31.2c-3.9 2.4-8.7 4.6-13.8 1.7z" fill="#fff"/>
</svg>